<svg width="65" height="65" viewBox="0 0 65 65" fill="none" xmlns="http://www.w3.org/2000/svg">
<path d="M32.8512 64.8309C50.4877 64.8309 64.8325 50.4861 64.8325 32.8525C64.8325 15.216 50.4877 0.871155 32.8512 0.871155C15.2147 0.871155 0.869921 15.216 0.869921 32.8525C0.872773 50.4861 15.2176 64.8309 32.8512 64.8309ZM32.8512 1.4502C50.1654 1.4502 64.2535 15.5383 64.2535 32.8525C64.2535 50.1666 50.1682 64.2519 32.8541 64.2519C15.5399 64.2519 1.45182 50.1666 1.45182 32.8525C1.45182 15.5383 15.537 1.4502 32.8512 1.4502Z" fill="#303030"/>
<path d="M19.6651 44.4473L34.8604 45.7964C34.8735 44.5709 34.9577 40.3237 35.5652 38.3908C36.2568 36.1843 42.5343 36.9864 44.1306 37.2284C45.0247 32.7313 46.5421 29.8832 46.6079 29.7623C46.6868 29.615 46.8709 29.5598 47.0181 29.6387C47.1654 29.7175 47.2206 29.9016 47.1417 30.0489C47.126 30.0778 45.5375 33.0653 44.6697 37.6281C44.6381 37.7885 44.483 37.8964 44.3225 37.8701C41.3955 37.3862 36.5882 37.1469 36.1437 38.5696C35.4731 40.705 35.4652 46.0726 35.4652 46.1252C35.4652 46.2093 35.4284 46.2908 35.3679 46.3487C35.3127 46.3987 35.2391 46.4276 35.1628 46.4276C35.1549 46.4276 35.1444 46.4276 35.1365 46.4276L19.6151 45.0496C19.4495 45.0338 19.3259 44.8865 19.3416 44.7208C19.3495 44.5551 19.4994 44.4342 19.6651 44.4473Z" fill="#9770A1"/>
<path d="M16.7381 37.0022C16.9643 36.6156 17.3325 36.3763 17.8348 36.2895C19.4153 36.016 28.8223 37.0416 30.5974 37.2389C30.7105 36.6419 30.9314 35.1166 30.5448 33.7622C30.1425 32.3526 29.3035 29.4203 31.6967 28.6761C32.817 28.3263 34.0688 28.4894 35.5152 28.6761C36.6881 28.8286 38.0188 28.9996 39.51 28.9233C40.2858 28.8839 40.9327 28.8549 41.5192 28.8286C43.4284 28.7445 44.6934 28.6892 47.623 28.3447C48.2148 28.1659 48.8564 28.2895 49.3403 28.6814C49.8347 29.0811 50.0951 29.6938 50.0346 30.3276L48.149 50.5275C48.1385 50.6564 48.0465 50.7616 47.9228 50.7931L47.8492 50.8115V51.3375C47.8492 51.448 47.7756 51.5453 47.6678 51.5742L46.1661 51.966C46.0109 52.0055 45.861 51.8898 45.861 51.7293V51.3112L39.3259 52.9549V53.4992C39.3259 53.6097 39.2549 53.707 39.147 53.7412L37.0774 54.3802C37.0379 54.3934 36.9958 54.396 36.9564 54.3881L35.3916 54.0962C35.2733 54.0752 35.1865 53.97 35.1865 53.849V53.3257L19.2812 51.5689V51.8529C19.2812 51.9765 19.1734 52.0739 19.0498 52.0607L17.7059 51.9029C17.6007 51.8898 17.5218 51.8004 17.5218 51.6952V51.3585C17.4087 51.3138 17.3272 51.2086 17.3272 51.0798V40.3894L16.7145 39.2244C16.7066 39.2113 16.7013 39.1981 16.696 39.185C16.6724 39.1324 16.2358 37.8622 16.7381 37.0022ZM17.2562 38.9667L17.8926 40.1791C17.9163 40.2238 17.9268 40.2711 17.9268 40.3211V50.8168L36.7171 52.8917L37.0589 40.5078C37.0642 40.3395 37.2036 40.2054 37.3693 40.2132C37.5376 40.2185 37.6691 40.3579 37.6638 40.5236L37.3246 52.8365L47.5652 50.2619L49.4324 30.275C49.4718 29.8464 49.2956 29.4282 48.959 29.1574C48.6224 28.8865 48.1937 28.805 47.7756 28.9365C47.7572 28.9417 47.7388 28.947 47.7177 28.9496C44.746 29.2994 43.4705 29.3546 41.5428 29.4414C40.959 29.4677 40.3121 29.4966 39.5389 29.5361C37.9925 29.615 36.6329 29.4414 35.4337 29.2862C34.0557 29.1074 32.867 28.9549 31.8729 29.2652C30.2661 29.7649 30.5632 31.6478 31.1234 33.6071C31.6572 35.4795 31.1471 37.5676 31.126 37.6544C31.0892 37.8017 30.9524 37.899 30.7973 37.8806C26.9156 37.4414 19.2338 36.6682 17.9321 36.8944C17.6112 36.9496 17.3903 37.089 17.2562 37.3151C16.9669 37.8069 17.1536 38.6537 17.2562 38.9667Z" fill="#9770A1"/>
<path d="M21.4955 35.7504C21.6638 35.7504 21.7979 35.6136 21.7979 35.4479V22.6826C21.7979 22.5143 21.6612 22.3802 21.4955 22.3802C21.3272 22.3802 21.193 22.517 21.193 22.6826V35.4479C21.193 35.6162 21.3298 35.7504 21.4955 35.7504Z" fill="#303030"/>
<path d="M15.9623 22.0331H27.0313C27.1286 22.0331 27.2207 21.9858 27.2785 21.9042C27.3364 21.8253 27.3496 21.7228 27.318 21.6281L23.773 11.5111C23.7309 11.3901 23.6152 11.3086 23.4863 11.3086H19.5073C19.3785 11.3086 19.2654 11.3901 19.2207 11.5111L15.6757 21.6281C15.6441 21.7202 15.6572 21.8227 15.7151 21.9042C15.773 21.9858 15.865 22.0331 15.9623 22.0331Z" fill="#303030"/>
<path d="M20.1254 24.6498C20.2937 24.6498 20.4278 24.513 20.4278 24.3473V22.6826C20.4278 22.5143 20.291 22.3802 20.1254 22.3802C19.957 22.3802 19.8229 22.517 19.8229 22.6826V24.3473C19.8229 24.513 19.957 24.6498 20.1254 24.6498Z" fill="#303030"/>
<path d="M23.9623 24.229C24.8144 24.229 25.5086 23.5347 25.5086 22.6826C25.5086 22.5143 25.3719 22.3802 25.2062 22.3802C25.0379 22.3802 24.9038 22.517 24.9038 22.6826C24.9038 23.2007 24.4804 23.6241 23.9623 23.6241C23.4442 23.6241 23.0208 23.2007 23.0208 22.6826C23.0208 22.5143 22.8841 22.3802 22.7184 22.3802C22.5501 22.3802 22.4159 22.517 22.4159 22.6826C22.4159 23.5347 23.1102 24.229 23.9623 24.229Z" fill="#303030"/>
</svg>
